<?xml version="1.0" encoding="UTF-8" standalone="no"?>
<!-- Created with Inkscape (http://www.inkscape.org/) -->

<svg
   xmlns:dc="http://purl.org/dc/elements/1.1/"
   xmlns:cc="http://creativecommons.org/ns#"
   xmlns:rdf="http://www.w3.org/1999/02/22-rdf-syntax-ns#"
   xmlns:svg="http://www.w3.org/2000/svg"
   xmlns="http://www.w3.org/2000/svg"
   xmlns:sodipodi="http://sodipodi.sourceforge.net/DTD/sodipodi-0.dtd"
   xmlns:inkscape="http://www.inkscape.org/namespaces/inkscape"
   width="283.48749"
   height="61.660629"
   id="svg24407"
   version="1.1"
   inkscape:version="0.48.3.1 r9886"
   sodipodi:docname="New document 30">
  <defs
     id="defs24409" />
  <sodipodi:namedview
     id="base"
     pagecolor="#ffffff"
     bordercolor="#666666"
     borderopacity="1.0"
     inkscape:pageopacity="0.0"
     inkscape:pageshadow="2"
     inkscape:zoom="0.35"
     inkscape:cx="236.74375"
     inkscape:cy="127.97318"
     inkscape:document-units="px"
     inkscape:current-layer="layer1"
     showgrid="false"
     fit-margin-top="0"
     fit-margin-left="0"
     fit-margin-right="0"
     fit-margin-bottom="0"
     inkscape:window-width="1152"
     inkscape:window-height="842"
     inkscape:window-x="1440"
     inkscape:window-y="0"
     inkscape:window-maximized="1" />
  <metadata
     id="metadata24412">
    <rdf:RDF>
      <cc:Work
         rdf:about="">
        <dc:format>image/svg+xml</dc:format>
        <dc:type
           rdf:resource="http://purl.org/dc/dcmitype/StillImage" />
        <dc:title></dc:title>
      </cc:Work>
    </rdf:RDF>
  </metadata>
  <g
     inkscape:label="Layer 1"
     inkscape:groupmode="layer"
     id="layer1"
     transform="translate(-138.25625,-370.1033)">
    <g
       id="g92"
       transform="matrix(1.25,0,0,-1.25,408.3325,386.8658)">
      <path
         inkscape:connector-curvature="0"
         style="fill:#ffffff;fill-opacity:1;fill-rule:nonzero;stroke:none"
         id="path94"
         d="m 0,0 0,5.363 -16.092,0 2.683,-2.681 0,-2.682 L 0,0 z m -21.455,-16.092 -2.682,2.682 0,24.138 2.682,2.682 29.502,0 2.682,-2.682 0,-14.751 -4.024,-4.023 4.024,-4.023 0,-4.023 -10.729,0 -8.045,8.046 -5.364,0 0,-8.046 -8.046,0 z m -37.549,0 0,29.502 10.728,-10.728 13.41,0 -2.682,2.681 -10.728,0 -8.045,8.047 26.82,0 2.682,-2.682 0,-13.41 -21.457,0 0,-5.364 10.728,0 2.682,2.682 8.047,0 0,-8.046 -2.682,-2.682 -29.503,0 z m -12.55,0 -8.047,8.046 0,10.728 10.729,10.728 8.045,0 0,-5.364 -13.41,-13.41 0,-2.682 4.023,4.023 9.387,-9.387 0,-2.682 -10.727,0 z m -21.457,0 0,26.82 2.682,2.682 8.047,0 0,-26.82 -2.682,-2.682 -8.047,0 z m -31.432,0 8.045,8.046 10.728,0 2.682,2.682 8.046,0 0,-8.046 -2.682,-2.682 -26.819,0 z m -2.682,0 0,29.502 10.727,0 0,-18.774 -10.727,-10.728 z m -13.412,8.046 0,8.046 2.683,2.682 0,2.681 -13.41,-13.409 10.727,0 z m -24.137,-8.046 0,8.046 21.455,21.456 13.41,0 0,-29.502 -10.728,0 0,2.682 -16.09,0 -2.682,-2.682 -5.365,0 z m -5.121,8.046 -4.023,8.046 0.669,0 6.705,13.41 9.388,0 -10.728,-21.456 -2.011,0 z m -7.377,-8.046 -9.387,18.774 -5.365,-10.728 -2.01,0 -4.023,8.046 0.67,0 6.705,13.41 8.046,0 12.068,-24.138 1.342,0 -2.682,-5.364 -5.364,0 z m -24.139,0 -14.75,29.502 9.387,0 12.069,-24.138 1.341,0 -2.683,-5.364 -5.364,0 z" />
    </g>
    <g
       id="g24367"
       transform="translate(138.25625,217.45856)">
      <g
         transform="matrix(1.25,0,0,-1.25,1.692375,196.00212)"
         id="g96">
        <path
           d="m 0,0 -1.018,-1.018 0,-1.953 2.973,0 0,0.606 1.884,0 0,-10.323 3.17,0 1.018,1.017 0,9.306 1.885,0 0,-0.606 2.973,0 0,1.953 L 11.867,0 0,0 z"
           id="path98"
           style="fill:#ee3338;fill-opacity:1;fill-rule:nonzero;stroke:none"
           inkscape:connector-curvature="0" />
      </g>
      <g
         transform="matrix(1.25,0,0,-1.25,22.268625,196.00212)"
         id="g100">
        <path
           d="m 0,0 2.972,-2.971 4.858,0 1.886,-1.887 -7.023,0 -4.381,4.383 0,-12.213 12.884,0 1.018,1.017 0,3.17 -3.169,0 -1.215,-1.215 -5.333,0 0,3.1 9.717,0 0,5.598 L 11.196,0 0,0 z"
           id="path102"
           style="fill:#ee3338;fill-opacity:1;fill-rule:nonzero;stroke:none"
           inkscape:connector-curvature="0" />
      </g>
      <g
         transform="matrix(1.25,0,0,-1.25,42.004875,196.00212)"
         id="g104">
        <path
           d="m 0,0 2.973,-2.971 4.858,0 1.215,-1.216 3.169,0 0,3.169 L 11.197,0 0,0 z"
           id="path106"
           style="fill:#ee3338;fill-opacity:1;fill-rule:nonzero;stroke:none"
           inkscape:connector-curvature="0" />
      </g>
      <g
         transform="matrix(1.25,0,0,-1.25,51.79375,208.14749)"
         id="g108">
        <path
           d="m 0,0 -5.333,0 0,5.055 -4.188,4.187 0,-12.214 12.887,0 1.018,1.017 0,3.17 -3.169,0 L 0,0 z"
           id="path110"
           style="fill:#ee3338;fill-opacity:1;fill-rule:nonzero;stroke:none"
           inkscape:connector-curvature="0" />
      </g>
      <g
         transform="matrix(1.25,0,0,-1.25,71.777875,196.00212)"
         id="g112">
        <path
           d="m 0,0 0,-3.168 1.688,-1.69 -7.218,0 0,4.858 -3.17,0 -1.018,-1.018 0,-10.653 1.018,-1.017 3.17,0 0,3.168 -1.689,1.69 7.219,0 0,-4.858 3.168,0 1.019,1.017 0,10.653 L 3.168,0 0,0 z"
           id="path114"
           style="fill:#ee3338;fill-opacity:1;fill-rule:nonzero;stroke:none"
           inkscape:connector-curvature="0" />
      </g>
      <g
         transform="matrix(1.25,0,0,-1.25,91.51425,197.27412)"
         id="g116">
        <path
           d="m 0,0 0,-3.366 1.214,-1.215 0,-2.163 -7.762,7.762 -3.169,0 0,-11.671 1.018,-1.018 3.17,0 0,4.384 -1.216,1.214 0,2.164 7.763,-7.762 2.151,0 1.018,1.018 0,11.671 -3.169,0 L 0,0 z"
           id="path118"
           style="fill:#ee3338;fill-opacity:1;fill-rule:nonzero;stroke:none"
           inkscape:connector-curvature="0" />
      </g>
      <path
         d="m 102.8205,199.71612 9.94875,0 0,8.43125 -9.94875,0 0,-8.43125 z m -3.71625,-2.4425 0,14.58875 16.10875,0 1.2725,-1.27125 0,-14.58875 -16.10875,0 -1.2725,1.27125 z"
         id="path120"
         style="fill:#ee3338;fill-opacity:1;fill-rule:nonzero;stroke:none"
         inkscape:connector-curvature="0" />
      <g
         transform="matrix(1.25,0,0,-1.25,124.0765,196.00212)"
         id="g122">
        <path
           d="m 0,0 -4.187,0 0,-12.214 L 0,-8.027 0,0 z"
           id="path124"
           style="fill:#ee3338;fill-opacity:1;fill-rule:nonzero;stroke:none"
           inkscape:connector-curvature="0" />
      </g>
      <g
         transform="matrix(1.25,0,0,-1.25,130.74275,208.14749)"
         id="g126">
        <path
           d="m 0,0 -4.858,0 -2.973,-2.972 11.196,0 1.019,1.017 0,3.17 -3.169,0 L 0,0 z"
           id="path128"
           style="fill:#ee3338;fill-opacity:1;fill-rule:nonzero;stroke:none"
           inkscape:connector-curvature="0" />
      </g>
      <path
         d="m 141.86925,199.71612 9.95,0 0,8.43125 -9.95,0 0,-8.43125 z m -3.71625,-2.4425 0,14.58875 16.10875,0 1.2725,-1.27125 0,-14.58875 -16.10625,0 -1.275,1.27125 z"
         id="path130"
         style="fill:#ee3338;fill-opacity:1;fill-rule:nonzero;stroke:none"
         inkscape:connector-curvature="0" />
      <g
         transform="matrix(1.25,0,0,-1.25,160.003,196.00212)"
         id="g132">
        <path
           d="m 0,0 2.973,-2.971 4.858,0 1.215,-1.216 3.169,0 0,3.169 L 11.197,0 0,0 z"
           id="path134"
           style="fill:#ee3338;fill-opacity:1;fill-rule:nonzero;stroke:none"
           inkscape:connector-curvature="0" />
      </g>
      <g
         transform="matrix(1.25,0,0,-1.25,168.51975,205.78975)"
         id="g136">
        <path
           d="m 0,0 2.903,0 -1.885,-1.886 -5.333,0 0,5.054 -4.188,4.187 0,-12.213 12.887,0 1.017,1.017 0,5.598 L 0,1.757 0,0 z"
           id="path138"
           style="fill:#ee3338;fill-opacity:1;fill-rule:nonzero;stroke:none"
           inkscape:connector-curvature="0" />
      </g>
      <g
         transform="matrix(1.25,0,0,-1.25,177.62875,196.00212)"
         id="g140">
        <path
           d="m 0,0 0,-11.671 1.018,-1.017 3.169,0 0,11.67 L 3.17,0 0,0 z"
           id="path142"
           style="fill:#ee3338;fill-opacity:1;fill-rule:nonzero;stroke:none"
           inkscape:connector-curvature="0" />
      </g>
      <g
         transform="matrix(1.25,0,0,-1.25,187.332,196.00212)"
         id="g144">
        <path
           d="m 0,0 2.973,-2.971 4.858,0 1.885,-1.887 -7.022,0 -4.383,4.383 0,-12.213 12.886,0 1.018,1.017 0,3.17 -3.17,0 -1.214,-1.215 -5.333,0 0,3.1 9.717,0 0,5.598 L 11.197,0 0,0 z"
           id="path146"
           style="fill:#ee3338;fill-opacity:1;fill-rule:nonzero;stroke:none"
           inkscape:connector-curvature="0" />
      </g>
      <g
         transform="matrix(1.25,0,0,-1.25,204.95775,196.00212)"
         id="g148">
        <path
           d="m 0,0 0,-5.598 2.232,-2.232 8.7,0 0,-2.493 -7.959,0 0,0.607 -2.973,0 0,-1.955 1.018,-1.017 12.885,0 0,5.598 -2.232,2.232 -7.009,0 -1.689,-1.689 0,4.182 7.959,0 0,-0.606 2.971,0 0,1.953 L 12.886,0 0,0 z"
           id="path150"
           style="fill:#ee3338;fill-opacity:1;fill-rule:nonzero;stroke:none"
           inkscape:connector-curvature="0" />
      </g>
      <g
         transform="matrix(1.25,0,0,-1.25,224.69538,214.30537)"
         id="g152">
        <path
           d="m 0,0 1.758,1.757 0,1.954 L 0,3.711 0,0 z"
           id="path154"
           style="fill:#ee3338;fill-opacity:1;fill-rule:nonzero;stroke:none"
           inkscape:connector-curvature="0" />
      </g>
      <g
         transform="matrix(1.25,0,0,-1.25,238.35987,196.00212)"
         id="g156">
        <path
           d="m 0,0 0,-11.671 1.018,-1.017 3.169,0 0,11.67 L 3.168,0 0,0 z"
           id="path158"
           style="fill:#ee3338;fill-opacity:1;fill-rule:nonzero;stroke:none"
           inkscape:connector-curvature="0" />
      </g>
      <g
         transform="matrix(1.25,0,0,-1.25,258.09625,197.27412)"
         id="g160">
        <path
           d="m 0,0 0,-3.366 1.215,-1.215 0,-2.163 -7.763,7.762 -3.168,0 0,-11.671 1.018,-1.018 3.169,0 0,4.384 -1.215,1.214 0,2.164 7.763,-7.762 2.15,0 1.018,1.018 0,11.671 -3.168,0 L 0,0 z"
           id="path162"
           style="fill:#ee3338;fill-opacity:1;fill-rule:nonzero;stroke:none"
           inkscape:connector-curvature="0" />
      </g>
      <g
         transform="matrix(1.25,0,0,-1.25,281.795,196.00212)"
         id="g164">
        <path
           d="m 0,0 -11.196,0 2.971,-2.971 4.859,0 1.215,-1.216 3.169,0 0,3.169 L 0,0 z"
           id="path166"
           style="fill:#ee3338;fill-opacity:1;fill-rule:nonzero;stroke:none"
           inkscape:connector-curvature="0" />
      </g>
      <g
         transform="matrix(1.25,0,0,-1.25,277.58725,208.14749)"
         id="g168">
        <path
           d="m 0,0 -5.333,0 0,5.055 -4.188,4.187 0,-12.214 12.887,0 1.018,1.017 0,3.17 -3.169,0 L 0,0 z"
           id="path170"
           style="fill:#ee3338;fill-opacity:1;fill-rule:nonzero;stroke:none"
           inkscape:connector-curvature="0" />
      </g>
    </g>
  </g>
</svg>
